<?xml version="1.0" encoding="UTF-8" standalone="no"?>
<svg
   xmlns:dc="http://purl.org/dc/elements/1.1/"
   xmlns:cc="http://creativecommons.org/ns#"
   xmlns:rdf="http://www.w3.org/1999/02/22-rdf-syntax-ns#"
   xmlns:svg="http://www.w3.org/2000/svg"
   xmlns="http://www.w3.org/2000/svg"
   xmlns:sodipodi="http://sodipodi.sourceforge.net/DTD/sodipodi-0.dtd"
   xmlns:inkscape="http://www.inkscape.org/namespaces/inkscape"
   width="25mm"
   height="25mm"
   viewBox="0 0 280 111.02804"
   version="1.1"
   id="svg8"
   sodipodi:docname="email.svg"
   inkscape:version="1.0.2 (e86c870879, 2021-01-15)">
  <sodipodi:namedview
     pagecolor="#ffffff"
     bordercolor="#666666"
     borderopacity="1"
     objecttolerance="10"
     gridtolerance="10"
     guidetolerance="10"
     inkscape:pageopacity="0"
     inkscape:pageshadow="2"
     inkscape:window-width="1920"
     inkscape:window-height="1024"
     id="namedview1157"
     showgrid="false"
     inkscape:zoom="1.2798963"
     inkscape:cx="-174.46432"
     inkscape:cy="196.48337"
     inkscape:window-x="0"
     inkscape:window-y="30"
     inkscape:window-maximized="1"
     inkscape:current-layer="svg8"
     inkscape:document-rotation="0" />
  <defs
     id="defs2" />
  <metadata
     id="metadata5">
    <rdf:RDF>
      <cc:Work
         rdf:about="">
        <dc:format>image/svg+xml</dc:format>
        <dc:type
           rdf:resource="http://purl.org/dc/dcmitype/StillImage" />
        <dc:title></dc:title>
      </cc:Work>
    </rdf:RDF>
  </metadata>
  <path
     style="stroke-width:0.30352"
     d="m 132.59282,181.04079 c -0.66774,-0.0665 -2.95885,-0.26386 -5.09134,-0.43857 -11.28947,-0.92494 -25.2806,-4.41227 -35.858039,-8.93771 C 75.453254,164.73772 60.199497,153.85999 48.87194,141.16339 43.182332,134.78615 38.296832,128.16872 34.411994,121.57733 8.5801336,77.7486 12.477559,23.379259 44.300802,-16.372464 c 4.234139,-5.289034 13.125895,-14.184863 18.272588,-18.280967 27.528151,-21.908858 61.43876,-30.833226 95.96344,-25.255023 31.55531,5.098434 60.21843,22.908104 78.95756,49.059849 10.9975,15.347766 18.27819,33.024496 21.16491,51.386124 1.10488,7.0278 1.40312,11.083812 1.40602,19.121754 0.003,8.442378 -0.32678,12.717295 -1.55726,20.184073 -4.99038,30.282494 -21.9542,58.251384 -46.57295,76.786594 -17.93648,13.5042 -39.10938,21.78951 -61.28286,23.98102 -3.37387,0.33347 -16.0078,0.63416 -18.05943,0.42983 z m 68.26912,-69.90964 c 0.39964,-0.4416 0.45181,-0.72138 0.2165,-1.16107 -0.17051,-0.3186 -9.76436,-9.97235 -21.31966,-21.452787 l -21.00964,-20.873522 2.23697,-2.099457 c 1.23033,-1.154702 2.33623,-2.063419 2.45756,-2.01937 0.12132,0.04404 9.56638,9.394555 20.98901,20.778906 19.70958,19.64353 21.86805,21.63904 22.60689,20.90021 0.32287,-0.32287 0.47724,-84.535896 0.1572,-85.761175 -0.18837,-0.721233 -0.4769,-1.091619 -0.89861,-1.153567 -0.69322,-0.101834 -6.10657,5.096886 -30.90904,29.683531 -23.72568,23.519235 -27.76749,27.464272 -28.2455,27.569256 -0.24991,0.05489 -1.37245,-0.798087 -2.49451,-1.895506 l -2.04013,-1.995307 7.73976,-7.650834 c 4.25686,-4.207961 14.9787,-14.836063 23.8263,-23.617998 8.84761,-8.781939 17.66082,-17.461562 19.58493,-19.28805 3.76072,-3.569923 6.06251,-6.02454 6.06251,-6.465029 0,-0.90045 -3.30889,-0.953374 -59.60455,-0.953374 -36.24098,0 -57.190308,0.107498 -57.686127,0.296008 -0.428203,0.162805 -0.778558,0.445109 -0.778558,0.627345 0,0.182239 3.038996,3.289087 6.753316,6.904112 3.71433,3.615026 14.470309,14.236384 23.902189,23.603017 9.43188,9.366633 19.23178,19.056827 21.77755,21.533766 2.54577,2.476938 4.62868,4.673235 4.62868,4.880661 0,0.669015 -3.97508,4.086907 -4.4464,3.823142 C 134.13444,75.213032 128.58345,69.78647 122.03304,63.28503 97.360085,38.796535 78.450914,20.286633 77.411274,19.605434 76.802593,19.20661 76.498107,19.169013 76.006722,19.431991 l -0.627396,0.335773 v 41.895022 c 0,42.176664 0.01402,42.776534 1.017316,43.428524 0.473751,0.30787 1.13407,-0.32587 22.081853,-21.193062 10.617825,-10.576995 19.499455,-19.230897 19.736925,-19.230897 0.23748,0 1.36818,0.943653 2.5127,2.097004 l 2.08094,2.097 -3.9102,3.732756 c -2.15061,2.053011 -8.48576,8.250441 -14.0781,13.772063 -5.592355,5.521622 -12.608589,12.42496 -15.591649,15.340756 -5.1541,5.03789 -8.386422,8.53265 -8.386422,9.0673 0,0.8212 3.779622,0.87768 60.732811,0.90772 57.54513,0.0303 58.77082,0.019 59.28644,-0.5508 z"
     id="path922" />
</svg>
