<?xml version="1.0" encoding="UTF-8" standalone="no"?>
<svg
   xmlns:dc="http://purl.org/dc/elements/1.1/"
   xmlns:cc="http://creativecommons.org/ns#"
   xmlns:rdf="http://www.w3.org/1999/02/22-rdf-syntax-ns#"
   xmlns:svg="http://www.w3.org/2000/svg"
   xmlns="http://www.w3.org/2000/svg"
   xmlns:sodipodi="http://sodipodi.sourceforge.net/DTD/sodipodi-0.dtd"
   xmlns:inkscape="http://www.inkscape.org/namespaces/inkscape"
   width="25mm"
   height="25mm"
   viewBox="0 0 280 111.02804"
   version="1.1"
   id="svg8"
   sodipodi:docname="github.svg"
   inkscape:version="1.0.2 (e86c870879, 2021-01-15)">
  <sodipodi:namedview
     pagecolor="#ffffff"
     bordercolor="#666666"
     borderopacity="1"
     objecttolerance="10"
     gridtolerance="10"
     guidetolerance="10"
     inkscape:pageopacity="0"
     inkscape:pageshadow="2"
     inkscape:window-width="1920"
     inkscape:window-height="1024"
     id="namedview1157"
     showgrid="false"
     inkscape:zoom="1.2798963"
     inkscape:cx="373.04166"
     inkscape:cy="177.58193"
     inkscape:window-x="0"
     inkscape:window-y="30"
     inkscape:window-maximized="1"
     inkscape:current-layer="svg8"
     inkscape:document-rotation="0" />
  <defs
     id="defs2" />
  <metadata
     id="metadata5">
    <rdf:RDF>
      <cc:Work
         rdf:about="">
        <dc:format>image/svg+xml</dc:format>
        <dc:type
           rdf:resource="http://purl.org/dc/dcmitype/StillImage" />
        <dc:title />
      </cc:Work>
    </rdf:RDF>
  </metadata>
  <path
     style="stroke-width:0.482594"
     d="m 102.14226,173.65533 c -2.344707,-0.45739 -12.379491,-4.63321 -18.03,-7.50289 C 54.471947,151.09924 31.058074,122.53906 21.897848,90.263476 18.722518,79.075358 17.504886,69.669359 17.493475,56.240556 17.484155,45.219257 17.949646,40.306372 19.91002,30.73884 c 9.127671,-44.547345 43.699882,-81.366942 87.73168,-93.434715 25.16331,-6.896492 53.94757,-5.499072 77.65298,3.76992 28.86912,11.28803 52.0963,32.460986 65.99075,60.1544559 6.34891,12.6541871 10.19076,25.3408621 12.12866,40.0516211 0.76088,5.775869 0.75572,23.862755 -0.009,29.920868 -2.41418,19.136608 -8.74043,36.57767 -18.87658,52.04146 -14.63397,22.32568 -34.48295,38.60742 -58.65655,48.11476 -7.45854,2.9334 -10.12869,3.10583 -12.43298,0.80283 l -1.56227,-1.56139 -0.2924,-21.829 c -0.31296,-23.36411 -0.43372,-24.58727 -2.99516,-30.33912 -0.63425,-1.42425 -2.04106,-3.70662 -3.12623,-5.07192 l -1.97304,-2.48239 3.95212,-0.55315 c 12.63403,-1.76832 22.47602,-5.23104 30.968,-10.895521 10.32716,-6.88861 16.69051,-17.579227 19.81735,-33.2938 1.02896,-5.1712 1.4732,-19.687859 0.74487,-24.34043 -1.24175,-7.932207 -5.16614,-16.727586 -10.08502,-22.602663 l -1.93788,-2.314568 1.18634,-4.085556 c 2.10623,-7.253576 1.54473,-17.4253508 -1.41795,-25.686855 -0.94018,-2.621643 -1.24313,-3.001375 -2.69257,-3.375035 -4.48457,-1.156093 -17.21156,3.508301 -28.24575,10.3519208 -2.74871,1.7048002 -4.22,2.3361515 -5.09083,2.1845649 -0.67365,-0.1173016 -3.4266,-0.6772733 -6.11767,-1.2444349 -15.39318,-3.2442465 -32.24986,-3.2442465 -47.64304,0 -2.69107,0.5671616 -5.45697,1.129064 -6.14644,1.2486556 -0.90366,0.1567394 -2.20934,-0.395177 -4.67752,-1.9772433 -9.840062,-6.3073211 -23.772316,-11.4069691 -28.893447,-10.5759391 -1.555208,0.252391 -1.666634,0.418198 -2.818427,4.194362 -1.867822,6.1236069 -2.340946,9.2541734 -2.303956,15.2446208 0.02746,4.4479255 0.274363,6.3580765 1.243506,9.6205242 l 1.209236,4.070696 -1.857615,2.203033 c -4.874216,5.780582 -8.919084,14.838299 -10.156659,22.743917 -0.729372,4.659215 -0.283389,19.178949 0.74748,24.335411 2.472383,12.367031 7.268045,22.205036 13.953471,28.624719 5.024996,4.825248 13.128619,9.508391 21.05357,12.167031 3.444371,1.15551 12.657001,3.10904 16.996691,3.60413 l 2.76015,0.3149 -1.87939,2.37759 c -2.44146,3.08868 -4.20565,6.86797 -5.14246,11.01632 -0.73336,3.2474 -0.80301,3.35017 -2.76226,4.07579 -4.3206,1.60018 -6.57967,1.95471 -12.627001,1.98165 -6.195241,0.0276 -6.314591,0.008 -9.539765,-1.61092 -4.176639,-2.0958 -7.788528,-5.58098 -11.094928,-10.70568 -4.789252,-7.42304 -12.064962,-12.65274 -18.504034,-13.3005 -3.704576,-0.37268 -6.466459,0.42495 -6.466459,1.8675 0,1.0989 3.877458,5.02404 7.29381,7.38348 1.164231,0.80407 3.268073,2.97573 4.675209,4.82596 2.294894,3.01751 3.451357,5.14648 7.686671,14.1507 2.321858,4.93624 8.156857,9.48046 14.608523,11.37695 1.459848,0.42911 5.694614,1.02381 9.410596,1.32154 5.519981,0.44224 7.617348,0.41427 11.461618,-0.15289 l 4.7053,-0.69419 0.11891,8.46734 c 0.23907,17.02247 0.13299,17.93462 -2.26884,19.50836 -1.27008,0.83218 -3.85362,1.26197 -5.57159,0.92682 z"
     id="path2172" />
</svg>
