<?xml version="1.0" encoding="UTF-8" standalone="no"?>
<svg
   xmlns:dc="http://purl.org/dc/elements/1.1/"
   xmlns:cc="http://creativecommons.org/ns#"
   xmlns:rdf="http://www.w3.org/1999/02/22-rdf-syntax-ns#"
   xmlns:svg="http://www.w3.org/2000/svg"
   xmlns="http://www.w3.org/2000/svg"
   xmlns:sodipodi="http://sodipodi.sourceforge.net/DTD/sodipodi-0.dtd"
   xmlns:inkscape="http://www.inkscape.org/namespaces/inkscape"
   width="25mm"
   height="25mm"
   viewBox="0 0 280 111.02804"
   version="1.1"
   id="svg8"
   sodipodi:docname="linkedin.svg"
   inkscape:version="1.0.2 (e86c870879, 2021-01-15)">
  <sodipodi:namedview
     pagecolor="#ffffff"
     bordercolor="#666666"
     borderopacity="1"
     objecttolerance="10"
     gridtolerance="10"
     guidetolerance="10"
     inkscape:pageopacity="0"
     inkscape:pageshadow="2"
     inkscape:window-width="1920"
     inkscape:window-height="1024"
     id="namedview1157"
     showgrid="false"
     inkscape:zoom="3.6200934"
     inkscape:cx="16.39903"
     inkscape:cy="96.146049"
     inkscape:window-x="0"
     inkscape:window-y="30"
     inkscape:window-maximized="1"
     inkscape:current-layer="svg8"
     inkscape:document-rotation="0" />
  <defs
     id="defs2" />
  <metadata
     id="metadata5">
    <rdf:RDF>
      <cc:Work
         rdf:about="">
        <dc:format>image/svg+xml</dc:format>
        <dc:type
           rdf:resource="http://purl.org/dc/dcmitype/StillImage" />
        <dc:title></dc:title>
      </cc:Work>
    </rdf:RDF>
  </metadata>
  <path
     style="stroke-width:0.616757"
     d="M 119.01247,182.98498 C 66.846408,175.28461 24.370307,135.22198 13.654508,83.613405 -1.555296,10.361111 46.614928,-59.564781 119.50464,-70.043083 c 8.50881,-1.223193 26.73445,-1.203082 35.54167,0.03926 20.82666,2.937677 40.91204,11.345364 58.10794,24.323815 5.89385,4.448325 17.456,15.767654 22.31234,21.843743 10.79879,13.511079 18.90608,29.5350857 23.48702,46.421958 3.25546,12.000702 4.2094,19.682867 4.2094,33.898571 0,14.215702 -0.95394,21.897868 -4.2094,33.898571 -4.58094,16.886865 -12.68823,32.910865 -23.48702,46.421945 -4.85634,6.07609 -16.41849,17.39542 -22.31234,21.84374 -17.1959,12.97847 -37.28128,21.38614 -58.10794,24.32383 -8.43259,1.18944 -28.01516,1.19634 -36.03384,0.0127 z M 103.43847,72.920453 V 27.643255 H 89.63926 75.840072 v 45.277198 45.277207 h 13.799188 13.79921 z m 44.2823,18.141896 c 0.19019,-26.401283 0.2325,-27.228276 1.56459,-30.571898 1.55439,-3.90158 4.9007,-7.523863 8.25692,-8.937834 3.36811,-1.419004 10.94607,-1.281459 13.9195,0.252625 2.68051,1.382965 5.1405,4.111176 6.6633,7.389846 0.92812,1.998282 1.06651,5.43677 1.23268,30.62679 l 0.1872,28.375782 h 13.79958 13.79958 l -0.19116,-33.957901 -0.19117,-33.957905 -1.65661,-4.615113 C 200.22913,32.082576 190.1546,25.188487 175.15227,25.169668 c -9.91856,-0.01246 -16.13934,2.578103 -23.10998,9.623747 l -4.4464,4.494259 V 33.46547 27.643255 h -13.1859 -13.1859 v 45.277198 45.277207 h 13.15062 13.15059 z M 94.218368,14.877161 C 100.41576,13.015907 105.89165,5.6207253 105.89165,-0.88758876 105.89165,-6.4613146 101.64358,-13.218659 96.457495,-15.89433 85.70468,-21.442068 72.819335,-12.691214 73.181861,-0.08708894 73.362299,6.1865224 78.2754,12.776762 84.282494,14.802888 c 3.749997,1.264838 5.917695,1.281035 9.935874,0.07428 z"
     id="path844" />
</svg>
