<?xml version="1.0" encoding="UTF-8" standalone="no"?>
<svg
   xmlns:dc="http://purl.org/dc/elements/1.1/"
   xmlns:cc="http://creativecommons.org/ns#"
   xmlns:rdf="http://www.w3.org/1999/02/22-rdf-syntax-ns#"
   xmlns:svg="http://www.w3.org/2000/svg"
   xmlns="http://www.w3.org/2000/svg"
   xmlns:sodipodi="http://sodipodi.sourceforge.net/DTD/sodipodi-0.dtd"
   xmlns:inkscape="http://www.inkscape.org/namespaces/inkscape"
   width="48px"
   height="48px"
   viewBox="0 0 24 24"
   role="img"
   version="1.1"
   id="svg6"
   sodipodi:docname="git.svg"
   inkscape:version="1.0.2 (e86c870879, 2021-01-15)">
  <metadata
     id="metadata12">
    <rdf:RDF>
      <cc:Work
         rdf:about="">
        <dc:format>image/svg+xml</dc:format>
        <dc:type
           rdf:resource="http://purl.org/dc/dcmitype/StillImage" />
        <dc:title>HTML5 icon</dc:title>
      </cc:Work>
    </rdf:RDF>
  </metadata>
  <defs
     id="defs10" />
  <sodipodi:namedview
     pagecolor="#ffffff"
     bordercolor="#666666"
     borderopacity="1"
     objecttolerance="10"
     gridtolerance="10"
     guidetolerance="10"
     inkscape:pageopacity="0"
     inkscape:pageshadow="2"
     inkscape:window-width="1920"
     inkscape:window-height="1024"
     id="namedview8"
     showgrid="false"
     inkscape:zoom="8.3085047"
     inkscape:cx="13.065672"
     inkscape:cy="38.733113"
     inkscape:window-x="0"
     inkscape:window-y="30"
     inkscape:window-maximized="1"
     inkscape:current-layer="svg6" />
  <title
     id="title2">HTML5 icon</title>
  <path
     style="fill:#000000;stroke-width:0.5"
     id="path885"
     d="" />
  <path
     style="stroke-width:0.0194655"
     d="m 11.70227,23.616851 c -0.168544,-0.04541 -0.34824,-0.12863 -0.47903,-0.22185 C 11.116595,23.318991 0.81635247,13.032862 0.69560128,12.881788 0.59334021,12.753848 0.49595465,12.556944 0.44283684,12.370723 0.38634664,12.17268 0.38239724,11.797414 0.43479784,11.607019 0.48324774,11.430983 0.56769989,11.252589 0.66889723,11.112513 0.71649343,11.046633 2.3437517,9.4050635 4.285027,7.4645845 L 7.8146183,3.93644 9.1370271,5.2589534 c 1.2852409,1.2853465 1.3217679,1.3239131 1.2996989,1.3723508 -0.07118,0.1562129 -0.108503,0.3743593 -0.108445,0.6337751 1.17e-4,0.5041965 0.156438,0.8876058 0.510226,1.2514353 0.141155,0.1451642 0.378347,0.3165207 0.520118,0.375756 l 0.06678,0.027903 v 3.2015384 3.201538 l -0.121659,0.06126 c -0.173335,0.08729 -0.277875,0.162083 -0.430413,0.307947 -0.620482,0.593337 -0.732738,1.534514 -0.268484,2.25102 0.316402,0.488323 0.822527,0.785398 1.396237,0.819537 0.559797,0.03331 1.089201,-0.18939 1.455158,-0.612136 0.541325,-0.625332 0.583109,-1.538801 0.101263,-2.214043 C 13.442602,15.775807 13.193542,15.5452 13.03456,15.452633 l -0.129777,-0.07556 V 12.211647 9.0462167 l 1.198155,1.1981533 1.198151,1.198153 -0.05335,0.174147 c -0.04865,0.158781 -0.05346,0.202488 -0.05455,0.495328 -8.37e-4,0.2791 0.0046,0.341317 0.04331,0.474863 0.152697,0.527192 0.499283,0.936507 0.980476,1.157935 0.295191,0.135838 0.587377,0.185172 0.918665,0.155112 0.503965,-0.04573 0.964335,-0.306403 1.266816,-0.717305 0.233288,-0.316912 0.341991,-0.654111 0.341991,-1.060872 0,-0.499199 -0.15896,-0.887822 -0.506103,-1.23731 -0.287956,-0.2899 -0.543184,-0.432374 -0.910949,-0.50851 -0.241,-0.04989 -0.602479,-0.04077 -0.811752,0.02048 l -0.136259,0.03988 -1.290259,-1.2887506 C 14.04949,8.1091174 13.800953,7.8512147 13.809641,7.819846 13.89997,7.493732 13.912816,7.0934391 13.841485,6.827104 13.795145,6.6540367 13.679298,6.3985883 13.583199,6.2575539 13.491618,6.1231487 13.28289,5.9110474 13.145045,5.8123161 12.980962,5.6947925 12.729785,5.580499 12.522797,5.5291743 c -0.237171,-0.05881 -0.60997,-0.058046 -0.834224,0.00172 L 11.533249,5.57228 10.1946,4.2337371 8.8559509,2.8951941 9.9508795,1.7985054 C 10.594686,1.1536658 11.100418,0.66296679 11.178348,0.60752318 11.520557,0.36405906 11.98784,0.27959056 12.40708,0.38541063 c 0.06496,0.0163953 0.201326,0.0699851 0.303033,0.11908404 l 0.184922,0.0892716 5.268034,5.26761523 c 5.745298,5.7448415 5.356133,5.3403855 5.48052,5.6958565 0.05092,0.145516 0.05449,0.176142 0.05449,0.467174 0,0.291031 -0.0038,0.321657 -0.05449,0.467172 -0.124379,0.355445 0.262271,-0.04637 -5.451337,5.66511 -4.031418,4.02992 -5.264565,5.251818 -5.350525,5.301735 -0.06144,0.03568 -0.188454,0.09182 -0.282252,0.124755 -0.15378,0.054 -0.197321,0.06047 -0.443058,0.06586 -0.222998,0.0049 -0.298255,-9.62e-4 -0.41416,-0.03218 z"
     id="path901" />
</svg>
