<?xml version="1.0" encoding="utf-8"?>
<!-- Generator: Adobe Illustrator 24.0.2, SVG Export Plug-In . SVG Version: 6.00 Build 0)  -->
<svg version="1.1" id="Capa_1" xmlns="http://www.w3.org/2000/svg" xmlns:xlink="http://www.w3.org/1999/xlink" x="0px" y="0px"
	 viewBox="0 0 64 64" style="enable-background:new 0 0 64 64;" xml:space="preserve">
<style type="text/css">
	.st0{fill-rule:evenodd;clip-rule:evenodd;fill:#F8EFD4;}
</style>
<path class="st0" d="M59,49.9c-3.5-0.1-6.2,0.3-8.4,1.2c-0.7,0.3-1.7,0.3-1.8,1.1c0.3,0.3,0.4,0.9,0.7,1.4c0.5,0.9,1.4,2,2.3,2.6
	l2.8,2c1.7,1,3.6,1.6,5.3,2.7c1,0.6,1.9,1.4,2.9,2c0.5,0.3,0.8,0.9,1.4,1.1v-0.1c-0.3-0.4-0.4-1-0.7-1.4L62,61.2
	c-1.3-1.7-2.8-3.2-4.5-4.4c-1.4-1-4.4-2.2-5-3.8l-0.1-0.1c1-0.1,2.1-0.4,3-0.7c1.5-0.4,2.8-0.3,4.4-0.7l2.1-0.6v-0.4
	c-0.8-0.8-1.3-1.8-2.2-2.6c-2.2-1.9-4.7-3.8-7.2-5.3c-1.3-0.9-3.1-1.4-4.5-2.2c-0.5-0.3-1.4-0.4-1.7-0.8c-0.8-1-1.2-2.2-1.8-3.3
	l-3.6-7.5c-0.8-1.7-1.3-3.4-2.2-4.9c-4.5-7.4-9.4-11.8-16.8-16.2c-1.6-0.9-3.5-1.3-5.6-1.8L13,5.8c-0.7-0.3-1.4-1.1-2-1.5
	C8.5,2.7,2.1-0.7,0.3,3.8C-0.9,6.6,2,9.3,3,10.8c0.7,1,1.7,2.1,2.2,3.2c0.3,0.7,0.4,1.5,0.7,2.3c0.7,1.9,1.3,4,2.3,5.8
	c0.5,0.9,1,1.9,1.6,2.7c0.3,0.5,1,0.7,1.1,1.5c-0.6,0.9-0.7,2.2-1,3.2c-1.6,4.9-1,10.9,1.3,14.5c0.7,1.1,2.3,3.5,4.6,2.6
	c2-0.8,1.5-3.2,2.1-5.4c0.1-0.5,0-0.9,0.3-1.2v0.1l1.8,3.6c1.3,2.1,3.7,4.3,5.7,5.8c1,0.8,1.9,2.1,3.2,2.6v-0.1h-0.1
	c-0.3-0.4-0.7-0.6-1-0.9c-0.8-0.8-1.7-1.7-2.3-2.6c-1.8-2.4-3.4-5.1-4.9-7.9c-0.7-1.3-1.3-2.8-1.9-4.2c-0.3-0.5-0.3-1.3-0.7-1.6
	c-0.7,1-1.6,1.8-2.1,2.9c-0.8,1.9-0.9,4.2-1.2,6.5c-0.2,0-0.1,0-0.2,0.1c-1.4-0.3-1.9-1.8-2.4-3c-1.3-3.1-1.5-8-0.4-11.5
	c0.3-0.9,1.6-3.8,1.1-4.6c-0.3-0.8-1.1-1.3-1.6-1.9c-0.6-0.8-1.2-1.9-1.6-2.8c-1-2.4-1.6-5.1-2.7-7.5c-0.5-1.1-1.4-2.3-2.2-3.3
	C3.9,8.6,3,7.7,2.3,6.3C2.1,5.9,1.8,5.1,2.1,4.6C2.2,4.2,2.4,4.1,2.8,4c0.6-0.5,2.2,0.1,2.7,0.4c1.6,0.6,3,1.3,4.3,2.2
	c0.6,0.4,1.3,1.3,2,1.5h0.9c1.4,0.3,3,0.1,4.3,0.5c2.3,0.7,4.4,1.8,6.3,3c5.7,3.6,10.4,8.7,13.6,14.8c0.5,1,0.7,1.9,1.2,2.9
	c0.9,2.1,2,4.3,3,6.4c0.9,2,1.8,4.1,3.1,5.8c0.7,0.9,3.3,1.4,4.4,1.9c0.9,0.4,2.2,0.7,3,1.2c1.5,0.9,3,1.9,4.4,2.9
	C56.6,47.9,58.8,49,59,49.9L59,49.9z M14.6,12.3c-0.6,0-1.2,0.1-1.8,0.2v0.1h0.1c0.3,0.7,1,1.2,1.4,1.8l1,2.1l0.1-0.1
	c0.6-0.4,0.9-1.1,0.9-2.2c-0.3-0.3-0.3-0.6-0.5-0.9C15.5,12.8,14.9,12.6,14.6,12.3L14.6,12.3z"/>
</svg>
