<?xml version="1.0" encoding="utf-8"?>
<!-- Generator: Adobe Illustrator 24.0.2, SVG Export Plug-In . SVG Version: 6.00 Build 0)  -->
<svg version="1.1" id="Capa_1" xmlns="http://www.w3.org/2000/svg" xmlns:xlink="http://www.w3.org/1999/xlink" x="0px" y="0px"
	 viewBox="0 0 2500 2490" style="enable-background:new 0 0 2500 2490;" xml:space="preserve">
<style type="text/css">
	.st0{fill:#F8EFD4;}
</style>
<path class="st0" d="M1239.3,0.7c-633.1,0-593.5,274.5-593.5,274.5l0.7,284.4h604.1V645H406.5c0,0-405.1-45.9-405.1,592.8
	C1.4,1876.6,355,1854,355,1854h211v-296.4c0,0-11.4-353.6,347.9-353.6h599.2c0,0,336.6,5.4,336.6-325.4V331.7
	C1849.8,331.7,1900.9,0.7,1239.3,0.7z M906.2,192c60-0.1,108.6,48.5,108.7,108.5c0,0.1,0,0.1,0,0.2c0.1,60-48.5,108.6-108.5,108.7
	c-0.1,0-0.1,0-0.2,0c-60,0.1-108.6-48.5-108.7-108.5c0-0.1,0-0.1,0-0.2C797.4,240.7,846,192,906,192C906.1,192,906.1,192,906.2,192z
	"/>
<path class="st0" d="M1257.3,2481.5c633.1,0,593.5-274.5,593.5-274.5l-0.7-284.4H1246v-85.4h844c0,0,405.1,45.9,405.1-592.8
	c0-638.8-353.6-616.1-353.6-616.1h-211v296.4c0,0,11.4,353.6-347.9,353.6H983.4c0,0-336.6-5.4-336.6,325.4v547
	C646.8,2150.5,595.7,2481.5,1257.3,2481.5L1257.3,2481.5z M1590.4,2290.2c-60,0.1-108.6-48.5-108.7-108.5c0-0.1,0-0.1,0-0.2
	c-0.1-60,48.5-108.6,108.5-108.7c0.1,0,0.1,0,0.2,0c60-0.1,108.6,48.5,108.7,108.5c0,0.1,0,0.1,0,0.2c0.1,60-48.5,108.6-108.5,108.7
	C1590.5,2290.2,1590.5,2290.2,1590.4,2290.2L1590.4,2290.2z"/>
</svg>
