<?xml version="1.0" encoding="UTF-8" standalone="no"?>
<svg
   xmlns:dc="http://purl.org/dc/elements/1.1/"
   xmlns:cc="http://creativecommons.org/ns#"
   xmlns:rdf="http://www.w3.org/1999/02/22-rdf-syntax-ns#"
   xmlns:svg="http://www.w3.org/2000/svg"
   xmlns="http://www.w3.org/2000/svg"
   xmlns:sodipodi="http://sodipodi.sourceforge.net/DTD/sodipodi-0.dtd"
   xmlns:inkscape="http://www.inkscape.org/namespaces/inkscape"
   width="48px"
   height="48px"
   viewBox="0 0 24 24"
   role="img"
   version="1.1"
   id="svg6"
   sodipodi:docname="styled.svg"
   inkscape:version="1.0.2 (e86c870879, 2021-01-15)">
  <metadata
     id="metadata12">
    <rdf:RDF>
      <cc:Work
         rdf:about="">
        <dc:format>image/svg+xml</dc:format>
        <dc:type
           rdf:resource="http://purl.org/dc/dcmitype/StillImage" />
        <dc:title>HTML5 icon</dc:title>
      </cc:Work>
    </rdf:RDF>
  </metadata>
  <defs
     id="defs10" />
  <sodipodi:namedview
     pagecolor="#ffffff"
     bordercolor="#666666"
     borderopacity="1"
     objecttolerance="10"
     gridtolerance="10"
     guidetolerance="10"
     inkscape:pageopacity="0"
     inkscape:pageshadow="2"
     inkscape:window-width="1920"
     inkscape:window-height="1024"
     id="namedview8"
     showgrid="false"
     inkscape:zoom="4.1542523"
     inkscape:cx="78.829941"
     inkscape:cy="41.671143"
     inkscape:window-x="0"
     inkscape:window-y="30"
     inkscape:window-maximized="1"
     inkscape:current-layer="svg6" />
  <title
     id="title2">HTML5 icon</title>
  <path
     style="stroke-width:0.0470859"
     d="M 1.2442629,23.965531 C 0.94031809,23.860432 0.72994709,23.708999 0.5578516,23.471428 0.28215872,23.090846 0.2799869,23.064588 0.2799869,20.112449 c 0,-1.786746 0.0175552,-2.780764 0.052034,-2.946095 0.0803205,-0.385167 0.3056945,-0.814179 0.57463992,-1.093862 C 1.1345972,15.835454 7.5918579,10.631514 8.8967111,9.6332692 10.111394,8.7040066 11.327714,7.9959953 12.003364,7.8249101 c 0.771863,-0.1954495 1.308957,0.1116547 1.357007,0.7759205 0.03403,0.4705293 -0.229548,1.0627229 -0.821907,1.8465854 l -0.199403,0.263868 0.06966,0.230534 c 0.03832,0.126794 0.0708,0.363625 0.0722,0.526291 l 0.0026,0.295757 0.202992,-0.154499 c 1.813651,-1.380384 2.455285,-1.7989582 3.320237,-2.1659782 1.155929,-0.490489 1.887728,-0.2775901 1.96473,0.5715902 0.04423,0.487788 -0.184504,1.029874 -0.803082,1.903253 l -0.180302,0.25457 0.09977,0.323037 c 0.127478,0.412722 0.162459,0.7726 0.107803,1.109064 l -0.0433,0.2666 0.498395,-0.250548 c 0.928568,-0.466797 1.494127,-0.589607 1.896191,-0.411756 0.413212,0.182784 0.620017,0.641052 0.510378,1.130969 -0.119964,0.536059 -0.607417,1.337777 -1.29344,2.127337 -0.170752,0.196523 -0.253968,0.329734 -0.235315,0.376687 0.08607,0.21664 0.209048,0.799014 0.208339,0.986579 -0.0023,0.619592 -0.308969,1.389661 -0.720345,1.809103 -0.384129,0.39166 -0.964621,0.831949 -1.096871,0.831949 -0.142746,0 -0.347919,-0.194935 -0.347919,-0.330558 0,-0.167082 0.07389,-0.254789 0.515105,-0.611446 0.691506,-0.558977 0.909409,-0.958104 0.91667,-1.67905 0.0024,-0.237357 -0.01116,-0.44709 -0.03011,-0.466074 -0.01895,-0.01899 -0.262798,0.185811 -0.541887,0.4551 -0.998316,0.963264 -1.50604,1.302778 -2.154642,1.4408 -1.028275,0.218816 -1.938634,-0.241238 -2.208311,-1.115983 -0.03593,-0.116538 -0.08629,-0.207416 -0.111913,-0.201953 -0.02562,0.0054 -1.546356,1.213218 -3.3794037,2.683898 l -3.3328148,2.673963 2.7269559,0.01384 c 2.9074446,0.01475 3.0778816,0.0046 3.5348136,-0.211804 0.139506,-0.06605 0.857886,-0.604539 1.596399,-1.196634 0.738512,-0.592096 1.396739,-1.090088 1.462726,-1.10665 0.176412,-0.04427 0.366986,0.112901 0.384714,0.317296 0.01761,0.203047 0.06548,0.158067 -1.520713,1.429021 -0.811932,0.65057 -1.380803,1.071213 -1.574304,1.164096 -0.640859,0.307624 -0.391714,0.291538 -4.7800413,0.30863 -2.9025918,0.01131 -4.0353546,9.55e-4 -4.1287339,-0.03772 -0.2264467,-0.0938 -0.2599689,-0.492263 -0.049824,-0.592229 0.043906,-0.02089 0.3371219,-0.04919 0.651594,-0.06291 l 0.5717684,-0.02494 5.4183878,-4.346833 c 2.980111,-2.390759 5.475319,-4.414276 5.544904,-4.496706 0.316668,-0.375124 0.485019,-0.957657 0.417866,-1.445919 l -0.0336,-0.244285 -0.85421,0.84582 c -0.868462,0.859932 -1.442097,1.350016 -1.78483,1.524865 -1.257121,0.641335 -2.612339,0.213931 -2.915477,-0.919475 -0.03209,-0.11999 -0.07705,-0.21193 -0.09991,-0.20431 -0.02286,0.0076 -2.2449468,1.781925 -4.9379767,3.942904 l -4.89641577,3.929053 0.0156535,0.495556 c 0.0133334,0.421962 0.0312483,0.517422 0.12067167,0.642781 0.1697937,0.238038 0.3600104,0.300092 0.9198691,0.300092 0.4271612,0 0.5092123,0.01298 0.6167722,0.09759 0.1715757,0.134962 0.1715757,0.376149 0,0.511111 -0.1089395,0.08569 -0.1878687,0.0974 -0.647431,0.09605 -0.3713159,-0.0011 -0.5920511,-0.02529 -0.7597817,-0.08328 z m 4.9588478,-7.164489 c 3.2418966,-2.599261 5.2142643,-4.211514 5.2962563,-4.329269 0.183186,-0.263088 0.269931,-0.537509 0.2675,-0.846253 l -0.0021,-0.264824 -0.26866,0.286418 c -0.733997,0.782517 -1.727105,1.632584 -2.1623853,1.850927 -0.4579602,0.22972 -1.044327,0.293126 -1.5349937,0.165981 -0.6150293,-0.15937 -1.0463176,-0.570546 -1.1438665,-1.090526 -0.015933,-0.08492 -0.04246,-0.162265 -0.058943,-0.171868 -0.016491,-0.0096 -1.1952052,0.917634 -2.6193724,2.060529 -2.8017294,2.248389 -2.8232419,2.268985 -2.9403548,2.815067 -0.0508299,0.237022 -0.0735782,3.665457 -0.024317,3.665457 0.01409,0 2.3501362,-1.863737 5.1912226,-4.141639 z m 9.2493523,1.694305 c 0.38368,-0.144141 0.91435,-0.585154 1.92118,-1.596594 1.458654,-1.465333 2.193386,-2.565952 1.979599,-2.965416 -0.111143,-0.207673 -0.629571,-0.08412 -1.441694,0.343589 -0.868469,0.457383 -1.519327,0.914309 -3.142938,2.206458 l -1.120361,0.891637 0.02938,0.218223 c 0.07756,0.576158 0.263793,0.850047 0.668268,0.982797 0.245759,0.08066 0.780963,0.04163 1.10657,-0.08069 z m -2.153218,-3.868112 c 0.340841,-0.127455 0.771236,-0.470234 1.607554,-1.280304 1.465565,-1.419565 2.36934,-2.619553 2.370746,-3.147761 7.34e-4,-0.2700448 -0.03597,-0.3217124 -0.228236,-0.321418 -0.262935,4.236e-4 -0.501463,0.079437 -1.066166,0.353269 -0.883899,0.428612 -1.679998,0.98457 -3.494112,2.44012 l -0.998557,0.801189 0.02629,0.215502 c 0.06278,0.514517 0.201952,0.77407 0.496821,0.926553 0.332986,0.172195 0.845831,0.177321 1.285657,0.01285 z M 8.9637658,12.89742 C 9.3289282,12.735891 9.7301855,12.395697 10.688009,11.435571 12.02923,10.091124 12.688963,9.1720388 12.65486,8.695511 12.641306,8.5061195 12.628391,8.4871253 12.503486,8.4728734 11.915088,8.4057365 10.431596,9.2886502 8.4023087,10.913729 l -1.1300624,0.904967 0.012856,0.261068 c 0.032629,0.662541 0.4121092,0.977535 1.1250823,0.933901 0.194694,-0.01192 0.4289094,-0.06109 0.5535789,-0.116245 z m 11.4474162,0.477167 c -0.140932,-0.0358 -0.294313,-0.143208 -0.744357,-0.521261 -0.45657,-0.383534 -0.552469,-0.524116 -0.552469,-0.809884 0,-0.246523 0.08003,-0.395642 0.353788,-0.659203 0.647662,-0.623542 1.070967,-1.4379867 1.297055,-2.4955539 0.128431,-0.6007546 0.139447,-1.038189 0.03261,-1.2948627 -0.06745,-0.1620521 -0.07869,-0.4000473 -0.08046,-1.7048712 l -0.0021,-1.5165274 -0.341373,-0.098177 C 19.876168,4.1310974 19.708522,4.0491 19.521211,3.857185 19.230459,3.5592842 19.208537,3.429545 19.208537,2.0067074 c 0,-1.37828742 0.01548,-1.47757201 0.273241,-1.75245578 0.287048,-0.30611446 0.313965,-0.30971654 2.322879,-0.31085824 l 1.819203,-0.0010279 0.250961,0.13110265 c 0.20316,0.10613264 0.275931,0.17890316 0.382063,0.38206488 0.115882,0.22182112 0.131105,0.30153808 0.131105,0.68655009 0,0.521915 -0.08357,0.683719 -0.353145,0.683719 -0.260999,0 -0.353144,-0.1656153 -0.353144,-0.6347129 0,-0.31471507 -0.01601,-0.40106789 -0.08611,-0.4645087 -0.07681,-0.0695157 -0.271666,-0.0779262 -1.805511,-0.0779262 -1.60593,0 -1.724545,0.005653 -1.797329,0.0861076 -0.06825,0.0754071 -0.07793,0.23599814 -0.07793,1.2922371 0,1.1840546 0.0019,1.2083139 0.105943,1.3254546 0.08822,0.09937 0.371027,0.1943071 1.690958,0.5676575 0.871758,0.2465827 1.636562,0.4483317 1.699567,0.4483317 0.226759,0 0.270406,-0.1192751 0.270406,-0.7389615 0,-0.5020632 0.01114,-0.580905 0.09759,-0.69081 0.134962,-0.1715757 0.376149,-0.1715757 0.51111,0 0.08753,0.11127 0.09754,0.1877505 0.09713,0.741604 -4.71e-4,0.5535003 -0.01225,0.6428597 -0.114144,0.8617087 -0.169349,0.3637263 -0.412686,0.5096147 -0.847087,0.5078555 -0.183244,-7.342e-4 -0.4005,-0.018972 -0.482789,-0.040521 l -0.149617,-0.03917 -0.01518,1.2882944 c -0.0148,1.2557553 -0.01804,1.2936476 -0.128337,1.5001823 -0.09354,0.175163 -0.119479,0.3138957 -0.14965,0.8004603 -0.04869,0.7853215 -0.117435,1.3192101 -0.258894,2.0108055 -0.232738,1.137862 -0.702015,2.361963 -1.002388,2.61471 -0.221366,0.186268 -0.547964,0.261184 -0.828247,0.189988 z m 0.525156,-1.001544 c 0.440931,-0.897085 0.861916,-2.7705265 0.861916,-3.8356473 0,-0.1943775 -0.01027,-0.2137418 -0.113296,-0.2137418 -0.101269,0 -0.116655,0.026241 -0.144921,0.2472008 -0.04458,0.3484253 -0.234345,1.0957892 -0.36925,1.4541993 -0.252132,0.669854 -0.646335,1.297531 -1.089178,1.734264 -0.14353,0.14155 -0.260964,0.271679 -0.260964,0.289177 0,0.0175 0.172699,0.172894 0.383776,0.345326 0.252954,0.206645 0.417473,0.308703 0.482631,0.299398 0.06899,-0.0099 0.1443,-0.106578 0.249286,-0.320176 z m 1.009729,-4.8456306 0.111159,-0.089953 0.01382,-1.3422315 0.01382,-1.3422315 -0.256497,-0.074565 C 21.382688,4.5488688 21.421562,4.4230532 21.421562,5.9950406 v 1.3911751 l 0.115574,0.1155747 c 0.138876,0.1388766 0.259623,0.1464419 0.408927,0.025624 z"
     id="path851" />
</svg>
