<?xml version="1.0" encoding="utf-8"?>
<!-- Generator: Adobe Illustrator 24.0.2, SVG Export Plug-In . SVG Version: 6.00 Build 0)  -->
<svg version="1.1" id="e7334088-53de-4589-99a2-090044ddfc90"
	 xmlns="http://www.w3.org/2000/svg" xmlns:xlink="http://www.w3.org/1999/xlink" x="0px" y="0px" viewBox="0 0 973.5 587"
	 style="enable-background:new 0 0 973.5 587;" xml:space="preserve">
<style type="text/css">
	.st0{fill:#F3F3F3;}
	.st1{fill:#666666;}
	.st2{fill:#FFB6B6;}
	.st3{fill:#2F2E41;}
	.st4{fill:#FEB8B8;}
	.st5{fill:#2079C7;}
	.st6{fill:#FBBEBE;}
	.st7{fill:#3F3D56;}
	.st8{fill:#FFFFFF;}
</style>
<rect x="0" class="st0" width="973.5" height="587"/>
<g id="f9b32178-6d95-472d-b482-6662972666de">
	<path id="f4b94a19-cbe0-459a-95a6-6ea3b3d72055" class="st1" d="M715.6,471.6c-6.3,0-11.5,5.1-11.5,11.5s5.1,11.5,11.5,11.5
		c6.3,0,11.5-5.1,11.5-11.5l0,0l0,0C727.1,476.8,721.9,471.6,715.6,471.6z M715.6,490.2c-3.9,0-7.1-3.2-7.1-7.1
		c0-3.9,3.2-7.1,7.1-7.1c3.9,0,7.1,3.2,7.1,7.1c0,0,0,0,0,0v0C722.7,487,719.5,490.2,715.6,490.2z"/>
	<path id="abc0e0b3-f22e-4bee-9929-c6879640924e" class="st1" d="M671.4,462.8h44.2v43.7c0,3.2-2.6,5.8-5.8,5.8c0,0,0,0,0,0h-32.7
		c-3.2,0-5.8-2.6-5.8-5.8c0,0,0,0,0,0L671.4,462.8L671.4,462.8z"/>
</g>
<path id="e24b6f19-a0a0-4e73-9cfc-bbb7635ad236" class="st1" d="M972.2,513.3H1.3c-0.8-0.1-1.4-0.6-1.3-1.1c0.1-0.5,0.6-0.8,1.3-0.9
	h970.8c0.8,0.1,1.4,0.6,1.3,1.1C973.4,512.8,972.8,513.2,972.2,513.3z"/>
<g>
	<polygon class="st2" points="382.1,494.4 378,514.7 454.3,540.2 460.4,510.2 	"/>
	<path class="st3" d="M389.7,490.5l-8.1,40l0,0c-2.8,14.1-16.6,23.2-30.6,20.3l-0.8-0.2l13.2-65.5L389.7,490.5z"/>
	<circle id="fd4e5ab9-ffc8-4bbb-9267-3af70c31dae1" class="st4" cx="468.6" cy="162.7" r="51.9"/>
	<path id="a8c9bbe2-1461-49cf-8211-f8d251166dc5" class="st3" d="M517.1,118c-7.8-12.6-19.9-21.9-34.1-26.1l-6.4,4.6v-6
		c-3.4-0.5-6.9-0.7-10.3-0.6l-5.5,5v-4.6c-16.4,2-31.3,10.9-40.9,24.3c-11.9,17.2-13.9,41.1-2.2,58.5c3.2-9.9,7.1-19.2,10.4-29.1
		c2.5,0.3,5.1,0.4,7.6,0l3.9-9.1l1.1,8.8c12.1-1.1,30.2-3.4,41.7-5.5l-1.1-6.7l6.7,5.6c3.5-0.8,5.6-1.5,5.5-2.1
		c8.6,13.8,19,22.6,27.6,36.4C524.3,151.9,528,135.7,517.1,118z"/>
	<ellipse id="f6be96d1-713f-4c17-812c-ecd79c56fe95" class="st3" cx="485.5" cy="464.8" rx="133.6" ry="37.4"/>
	<path class="st5" d="M580.2,296.1c-1.8-10.7-3.6-21.7-8.6-31.3c-3.3-6.3-8.5-12.4-15.5-13.6c-1.4-0.1-2.7-0.4-4-0.9
		c-2.1-1-29.7-16.8-34.1-19.5c-3.8-2.4-9.7-6.7-12.7-6.7c-3-0.1-14.6,2.6-59.8-0.9c-7.6,3-15,6.7-22,10.8
		c-0.1-0.1-46.9,25-48.6,24.9c-3.3-0.1-6.4,2-8.3,4.7c-1.9,2.7-2.8,6-3.7,9.2c10.2,22.7,19.5,45.5,29.8,68.2
		c0.5,0.9,0.7,1.8,0.7,2.8c-0.2,1-0.6,2-1.3,2.8c-5,8-4.8,18.2-4.3,27.6c0.5,9.5,1.2,19.4-3,27.9c-1.1,2.3-2.6,4.5-3.7,6.8
		c-2.6,5.3-3.5,22.1-2,27.8l187.3,5.4C562.2,430.9,580.2,296.1,580.2,296.1z"/>
	<path id="eb41f72e-aba6-4a16-bf55-c7027d2f1a4b" class="st6" d="M346.6,342c-0.4,2.7-0.4,5.4-0.1,8.2l2.7,38.5
		c0.3,3.6,0.5,7.3,0.8,10.9c0.6,7,1.6,14,2.8,21c0.1,2.1,1.8,3.7,3.8,3.6c11.8,2.5,24,2.4,36.1,1.7c18.4-1,65.5-3,68.4-6.7
		s1.2-9.8-2.5-12.8S392.7,396,392.7,396c0.6-4.8,2.4-9.3,4.2-13.9c3.1-8.1,6-16.5,6.1-25.1s-3.2-17.8-10.3-22.8
		c-5.8-4.1-13.4-4.8-20.5-4.7c-5.2,0.1-14.1-1.1-18.9,0.9C349.5,332.1,347.3,338.3,346.6,342z"/>
	<path id="a363f2f7-2464-40a1-ad01-344825aa0b75" class="st3" d="M580.5,429.1c3.1-1.2,6.5-0.8,9.9-0.3c10.7,1.5,21.6,3,31.6,7.3
		c4.7,2,9.1,4.7,12.3,8.6c2.8,3.5,4.4,7.9,6,12.1l3.6,9.8c1.5,3.7,2.6,7.6,3.1,11.5c1.1,11.8-6.9,22.8-17,29
		c-10.1,6.1-22,8.3-33.6,10.6c-11.6,2.3-23.2,4.8-34.8,7.5c-5.4,1.4-10.9,2.5-16.4,3.2c-12.4,1.4-25.3-0.7-37,3.4
		c-4.7,1.6-9.3,4.1-14.1,5.2c-3.2,0.7-6.5,1.2-9.8,1.5L462,541c-4.5,0.6-9.1,1-13.6,1c-9.7,0-19.3-2.3-28.7-4.6
		c-1-0.2-2-0.6-2.8-1.1c-1.5-1.2-1.8-3.3-2-5.1c-1-8.4-1.8-16.7-2.5-25.1c-0.2-2.7-0.4-5.7,1.1-7.9c1.9-2.8,5.5-3.7,8.8-4.2
		c14.1-2.3,28.4-3.3,42.7-3c5.4-5.4,14.4-5.5,21.5-8.4c2.6-1.2,5.1-2.6,7.6-4.1c12.7-7.4,26.9-11.9,41.6-13.1
		c2.9-0.1,5.7-0.5,8.5-1.2c5.5-1.7,10.5-6.4,16.2-5.2c0.7-1.9,1.2-4.5,2.8-5.8c0.8-0.7,1.8-1.1,2.5-1.9c1.6-1.6,1.7-4.1,1.5-6.3
		s-0.8-4.5-0.2-6.6c0.2-0.8,0.6-1.6,1-2.3C570.7,431.1,574.9,428.6,580.5,429.1z"/>
	<path id="b53ad979-99f4-4c6e-a0f8-957060c42096" class="st5" d="M362.3,273.4c-0.9,1-1.6,2.1-2.1,3.3c-7.5,17-12,35.2-13.2,53.8
		c0,0.9-0.2,1.8-0.6,2.6c-0.4,0.5-0.9,1-1.4,1.5c-1.8,2.2-1.6,5.4,0.6,7.3c0.1,0.1,0.2,0.1,0.3,0.2c1.5-2.9,5.2-3.8,8.5-4.1
		c15.7-1.2,31,6.1,46.8,5.5c-1.1-3.8-2.7-7.5-3.6-11.4c-4-17.3,6-36-0.1-52.6c-1.2-3.3-3.3-6.6-6.5-8.1c-1.3-0.5-2.7-0.9-4.2-1.1
		c-4-0.7-11.9-3.8-15.7-2.6c-1.4,0.5-2,1.8-3.2,2.6C366.1,271.5,363.7,271.9,362.3,273.4z"/>
	<path id="a1197c30-bfd4-4098-bcf9-2468e7a33bf1" class="st6" d="M580.3,330.4c-4.7-2-13.7-0.8-18.9-0.9c-7.1-0.2-14.7,0.6-20.5,4.7
		c-7.1,5-10.4,14.1-10.3,22.8c0.1,8.7,3,17,6.1,25.1c1.7,4.6,3.6,9.1,4.2,13.9c0,0-62.1,7.4-65.9,10.4s-5.4,9.1-2.5,12.8
		s92.6,7.5,104.4,5c2.1,0.1,3.8-1.6,3.8-3.6c1.2-7,2.2-13.9,2.8-21c0.3-3.6,0.6-7.2,0.8-10.9l2.7-38.5c0.3-2.7,0.3-5.5-0.1-8.2
		C586.2,338.3,584.1,332.1,580.3,330.4z"/>
	<path id="ebe46053-6aac-4aa7-8615-21a6fa79538d" class="st5" d="M565.6,270.3c-1.2-0.8-1.7-2.1-3.2-2.6c-3.8-1.2-11.8,1.8-15.7,2.6
		c-1.4,0.2-2.8,0.6-4.2,1.1c-3.2,1.5-5.3,4.7-6.5,8.1c-6.1,16.6,3.9,35.4-0.1,52.6c-0.9,3.9-2.5,7.6-3.6,11.4
		c15.7,0.6,31.1-6.8,46.8-5.5c3.3,0.3,7,1.2,8.5,4.1c0.1-0.1,0.2-0.1,0.3-0.2c2.2-1.8,2.5-5.1,0.6-7.3c-0.5-0.5-1-1-1.4-1.5
		c-0.4-0.8-0.6-1.7-0.6-2.6c-1.2-18.6-5.6-36.8-13.2-53.8c-0.5-1.2-1.2-2.4-2.1-3.3C569.8,271.9,567.4,271.5,565.6,270.3z"/>
	<polygon class="st2" points="591.9,523.4 589.2,543.9 508.6,543.2 512.7,512.8 	"/>
	<path class="st3" d="M612.5,520.8l-8.8,66.2l-0.8-0.1c-14.2-1.9-24.2-15-22.4-29.2l0,0l5.4-40.5L612.5,520.8z"/>
	<path id="a0b0f7ea-4ed9-4447-aa64-e2335b2c3196" class="st3" d="M402.4,439.5c0,0.9-1.5,0-1.6-1c-1-7.6-7-13.8-14-16.8
		s-14.9-3.2-22.5-2.5c-11.4,1.1-24.3,5.5-28.5,16.2c-1,2.5-10.3,24.8-9.4,29.8c2.4,13.4,11.6,24.8,22.6,32.7s24,12.6,36.9,16.9
		c34.1,11.2,69.1,19.6,104.6,25c5.8,0.9,11.6,1.7,17.1,3.5c4.9,1.7,9.5,4.1,14.4,6.1c11.2,4.5,23.3,6.1,35.2,7.7
		c2,0.3,4.4,0.4,5.9-0.9c1.9-1.8,1.3-4.9,0.7-7.5c-2-9.8-0.3-20.1,4.8-28.7c2-3.4,4.6-6.8,4.2-10.7c-0.4-4.5-5-7.8-9.5-8.5
		s-9.1,0.3-13.6,0.9c-1.5,0.4-3.2,0.2-4.6-0.5c-0.7-0.5-1.3-1-1.8-1.6c-6.4-6.2-16-7.5-23.9-3.3c-1.7,0.9-4.2-1.1-5.9-1.9l-19.6-8.9
		c-22.6-10.2-45.2-20.5-69.1-26.9c-1.9-0.4-3.7-1.1-5.3-2.2c-1.2-0.9-2-2.2-3.1-3.2c-2.4-2.3-5.7-3.1-8.6-4.7
		C405,446.6,401.8,442.7,402.4,439.5z"/>
	<circle class="st6" cx="453.3" cy="412" r="14"/>
	<circle class="st6" cx="484.3" cy="412" r="14"/>
	<path class="st7" d="M570.7,443.5H378.4c-4.7,0-8.5-3.8-8.5-8.5V318.4c0-4.7,3.8-8.5,8.5-8.5h192.3c4.7,0,8.5,3.8,8.5,8.5v116.7
		C579.2,439.7,575.4,443.5,570.7,443.5z"/>
	<circle id="e793da3b-cee2-4a15-ae11-6dab45a6c728" class="st8" cx="474.1" cy="376.7" r="5.6"/>
</g>
</svg>
