<?xml version="1.0" encoding="utf-8"?>
<!-- Generator: Adobe Illustrator 24.0.2, SVG Export Plug-In . SVG Version: 6.00 Build 0)  -->
<svg version="1.1" id="Capa_1" xmlns="http://www.w3.org/2000/svg" xmlns:xlink="http://www.w3.org/1999/xlink" x="0px" y="0px"
	 viewBox="0 0 64 64" style="enable-background:new 0 0 64 64;" xml:space="preserve">
<style type="text/css">
	.st0{fill:#F4F7F5;}
</style>
<g transform="matrix(.125041 0 0 .125041 0 .844399)">
	<path class="st0" d="M511,358l0.5-6.7c0.2-2.7-161.1-155.7-161.1-155.7h-3.8C346.6,195.6,510.1,368,511,358L511,358z"/>
	<path class="st0" d="M166.9,304.9l-0.6,1.4l-0.7,1.5c-5.1,10.7,72,86.1,78.2,76.9l0.8-1.2l0.9-1.4
		C250.5,374.6,169.1,300,166.9,304.9L166.9,304.9z"/>
	<path class="st0" d="M275.9,410.9c-0.2,0.5-1.8,3.1-3.2,4.5c-0.2,0.5,75.3,75.4,75.3,75.4h6.8C354.8,490.8,283.9,414.1,275.9,410.9
		z"/>
	<path class="st0" d="M511.7,349.9c-3.5,78.3-68.3,140.9-147.4,140.9h-10.7l-79-77.9c6.5-9.2,12.5-18.7,17.9-28.6h71.8
		c22.7,0,41.2-18.5,41.2-41.2c0-22.7-18.5-41.2-41.2-41.2h-42.5c3.2-17.1,5-34.8,5-52.8c0-18.3-1.8-36.2-5.2-53.6H348l163.2,160.8
		C511.4,354.2,511.5,352.1,511.7,349.9L511.7,349.9z M42.9,6.8H0v106.4h42.9c75,0,136,61,136,136c0,19.7-4.3,39.3-12.6,57.2
		l78.3,77.2c26.6-39.7,40.8-86.5,40.8-134.3C285.4,115.5,176.6,6.8,42.9,6.8z"/>
	<path class="st0" d="M364.2,6.8H190.4C232.8,32.7,268,69.4,292,113.2h72.3c22.7,0,41.2,18.5,41.2,41.2s-18.5,41.2-41.2,41.2H348
		l163.2,160.8c0.4-4.4,0.6-8.8,0.6-13.2c0-35.9-12.9-68.8-34.3-94.4c21.4-25.6,34.3-58.5,34.3-94.4C511.8,73,445.6,6.8,364.2,6.8z"
		/>
	<path class="st0" d="M353.5,490.8H191.6c32.6-20.1,60.8-46.7,82.9-77.9L353.5,490.8z M244.6,383.5l-78.3-77.2
		c-21.6,46.5-68.8,78.8-123.4,78.8H0v106.4h42.9C126.9,491.6,201.1,448.6,244.6,383.5L244.6,383.5z"/>
</g>
</svg>
