<?xml version="1.0" standalone="no"?>
<!DOCTYPE svg PUBLIC "-//W3C//DTD SVG 20010904//EN"
 "http://www.w3.org/TR/2001/REC-SVG-20010904/DTD/svg10.dtd">
<svg version="1.0" xmlns="http://www.w3.org/2000/svg"
 width="260.000000pt" height="260.000000pt" viewBox="0 0 260.000000 260.000000"
 preserveAspectRatio="xMidYMid meet">
<metadata>
Created by potrace 1.14, written by Peter Selinger 2001-2017
</metadata>
<g transform="translate(0.000000,260.000000) scale(0.100000,-0.100000)"
fill="#000000" stroke="none">
<path d="M992 1734 c-143 -29 -232 -122 -232 -241 0 -75 16 -117 60 -156 54
-49 85 -64 208 -96 59 -16 118 -33 132 -39 89 -36 93 -124 8 -168 -38 -19
-135 -22 -169 -4 -39 20 -68 51 -79 84 l-10 32 -83 -2 c-45 -1 -85 -2 -88 -3
-10 -2 9 -88 27 -127 23 -49 96 -110 157 -131 80 -27 253 -24 330 6 110 43
169 135 161 249 -7 113 -87 190 -239 230 -44 11 -99 26 -122 32 -85 22 -124
82 -92 142 24 45 137 63 203 31 22 -10 43 -31 53 -53 l18 -35 80 0 c44 0 83 4
87 9 8 12 0 53 -19 94 -58 121 -219 181 -391 146z"/>
<path d="M87 1732 c-14 -3 -16 -44 -16 -432 l1 -428 92 0 93 0 1 166 c0 92 1
172 1 179 1 8 38 11 129 11 70 0 148 1 174 1 l48 1 -1 75 -1 75 -174 0 -174 0
-1 28 c-2 73 1 165 5 169 3 3 89 6 193 6 l188 2 0 73 1 72 -30 1 c-143 2 -516
3 -529 1z"/>
<path d="M1610 1730 l-75 -5 1 -415 c1 -228 2 -421 3 -428 1 -16 437 -10 493
7 49 15 117 68 141 109 10 18 21 59 24 92 10 109 -38 187 -138 220 l-52 18 32
7 c47 10 107 72 121 124 34 128 -53 249 -192 267 -60 8 -268 10 -358 4z m297
-154 c90 -21 97 -151 12 -187 -18 -7 -69 -13 -113 -14 l-81 0 -3 105 -3 106
78 -1 c43 -1 93 -5 110 -9z m27 -340 c45 -19 76 -61 76 -103 0 -80 -43 -105
-187 -108 l-103 -1 0 113 0 113 90 0 c54 0 104 -6 124 -14z"/>
<path d="M2385 1060 c-32 -13 -64 -53 -66 -85 -4 -46 9 -72 45 -94 46 -29 92
-22 128 18 39 43 38 92 -1 132 -16 16 -35 29 -43 30 -7 0 -20 2 -28 3 -8 2
-24 0 -35 -4z"/>
</g>
</svg>
