<?xml version="1.0" standalone="no"?>
<!DOCTYPE svg PUBLIC "-//W3C//DTD SVG 20010904//EN"
 "http://www.w3.org/TR/2001/REC-SVG-20010904/DTD/svg10.dtd">
<svg version="1.0" xmlns="http://www.w3.org/2000/svg"
 width="260.000000pt" height="260.000000pt" viewBox="0 0 260.000000 260.000000"
 preserveAspectRatio="xMidYMid meet">
<metadata>
Created by potrace 1.14, written by Peter Selinger 2001-2017
</metadata>
<g transform="translate(0.000000,260.000000) scale(0.100000,-0.100000)"
fill="#000000" stroke="none">
<path d="M974 1701 c-91 -22 -174 -91 -195 -163 -23 -79 -7 -171 38 -224 45
-52 127 -85 243 -99 109 -12 140 -32 140 -90 0 -60 -47 -95 -128 -95 -63 0
-105 15 -164 56 l-47 33 -61 -58 -61 -58 36 -32 c83 -73 179 -102 316 -97 86
3 103 7 158 36 74 40 116 93 131 166 21 101 -7 188 -77 238 -52 36 -97 51
-218 71 -74 12 -94 19 -112 40 -26 29 -28 43 -12 79 17 36 58 49 135 43 53 -4
75 -11 111 -36 l46 -32 35 33 c47 43 82 81 82 89 0 17 -112 80 -165 94 -61 15
-177 18 -231 6z"/>
<path d="M90 1291 l0 -406 88 -1 c48 0 89 3 92 7 3 4 5 75 5 158 0 94 3 152
10 154 5 2 76 3 158 2 l147 -1 1 51 c0 27 2 60 3 73 2 13 -4 26 -13 30 -9 4
-81 7 -161 6 l-145 -1 1 71 c1 39 2 79 3 88 1 15 17 17 154 16 83 0 166 0 183
1 l31 1 1 79 2 79 -280 0 -280 0 0 -407z"/>
<path d="M1539 1697 c-1 -1 -2 -183 -3 -404 -1 -264 2 -404 9 -406 5 -2 118
-3 250 -2 l241 1 44 26 c53 31 79 64 101 125 27 74 10 176 -36 216 -26 24 -97
57 -107 51 -4 -3 -8 0 -8 5 0 6 8 11 18 11 31 0 78 37 96 74 32 69 17 185 -32
239 -9 11 -35 29 -57 40 -37 20 -57 22 -277 24 -131 1 -239 1 -239 0z m412
-174 c29 -28 29 -108 1 -136 -18 -17 -35 -20 -126 -22 l-106 -1 0 91 0 91 105
-1 c92 -1 108 -4 126 -22z m11 -315 c31 -12 42 -36 39 -93 -2 -69 -21 -79
-158 -79 l-118 -1 -3 91 -3 92 108 0 c59 0 120 -4 135 -10z"/>
<path d="M2386 1079 c-60 -10 -89 -49 -83 -110 3 -26 8 -53 12 -59 13 -22 68
-42 104 -37 69 8 102 47 96 115 -6 69 -56 104 -129 91z"/>
</g>
</svg>
